<?xml version="1.0" encoding="utf-8"?>
<!-- Svg Vector Icons : http://www.onlinewebfonts.com/icon -->
<!DOCTYPE svg PUBLIC "-//W3C//DTD SVG 1.1//EN" "http://www.w3.org/Graphics/SVG/1.1/DTD/svg11.dtd">
<svg version="1.1" xmlns="http://www.w3.org/2000/svg" xmlns:xlink="http://www.w3.org/1999/xlink" x="0px" y="0px" viewBox="0 0 1000 1000" enable-background="new 0 0 1000 1000" xml:space="preserve">
<metadata> Svg Vector Icons : http://www.onlinewebfonts.com/icon </metadata>
<g><path d="M943.5,21.8c-20.7-20.7-57.2-17.6-81.8,7L705.5,184.9l-14.3-14.3l-1.2-1.2c-16.8-16.8-47.4-21.3-68.5-10.1L394.9,280.1c-21.1,11.3-24.6,33.9-7.8,50.7l142,142c0.1,0.1,0.2,0.2,0.3,0.3c0.1,0.1,0.2,0.2,0.3,0.3l142,142c16.8,16.8,39.5,13.4,50.7-7.7l120.7-226.5c11.3-21.1,6.8-51.7-10-68.5l-1.2-1.2l-18.9-18.9l156.2-156.2c24.6-24.6,27.7-61.1,7-81.8L943.5,21.8z M332.8,389.1c-16.8-16.8-39.5-13.4-50.7,7.8L161.3,623.4c-11.3,21.1-6.8,51.7,10.1,68.5l1.2,1.2l14.3,14.3L30.7,863.7c-24.6,24.6-27.7,61.1-7,81.8l32.8,32.8c20.7,20.7,57.2,17.6,81.8-7l156.2-156.2l18.9,18.9l1.2,1.2c16.8,16.8,47.4,21.3,68.5,10l226.5-120.7c21.1-11.3,24.6-33.9,7.7-50.7l-142-142c-0.1-0.1-0.2-0.2-0.3-0.3c-0.1-0.1-0.2-0.2-0.3-0.3L332.8,389.1z"/></g>
</svg>