{
    "asset" : {
        "generator" : "Khronos glTF Blender I/O v1.8.19",
        "version" : "2.0"
    },
    "scene" : 0,
    "scenes" : [
        {
            "name" : "Scene",
            "nodes" : [
                0,
                1,
                2,
                3,
                4
            ]
        }
    ],
    "nodes" : [
        {
            "mesh" : 0,
            "name" : "Cube",
            "scale" : [
                0.48505720496177673,
                0.436727374792099,
                1.6875046491622925
            ],
            "translation" : [
                0,
                0.839143693447113,
                0
            ]
        },
        {
            "mesh" : 1,
            "name" : "Cylinder",
            "rotation" : [
                0,
                0,
                -0.7071067690849304,
                0.7071068286895752
            ],
            "scale" : [
                0.6438672542572021,
                0.2977398633956909,
                0.6438672542572021
            ],
            "translation" : [
                0.9010903835296631,
                0.5653731822967529,
                -1.0737731456756592
            ]
        },
        {
            "mesh" : 2,
            "name" : "Cylinder.001",
            "rotation" : [
                0,
                0,
                -0.7071067690849304,
                0.7071068286895752
            ],
            "scale" : [
                0.45274993777275085,
                0.2977398633956909,
                0.45274993777275085
            ],
            "translation" : [
                0.9010903835296631,
                0.4147356152534485,
                1.0529520511627197
            ]
        },
        {
            "mesh" : 3,
            "name" : "Cube.001",
            "translation" : [
                0,
                1.7276992797851562,
                -0.9648261070251465
            ]
        },
        {
            "mesh" : 4,
            "name" : "Cylinder.002",
            "scale" : [
                0.07516209781169891,
                0.7494509220123291,
                0.07516209781169891
            ],
            "translation" : [
                0,
                2.029103994369507,
                0.834623396396637
            ]
        }
    ],
    "materials" : [
        {
            "doubleSided" : true,
            "name" : "Material",
            "pbrMetallicRoughness" : {}
        }
    ],
    "meshes" : [
        {
            "name" : "Cube.001",
            "primitives" : [
                {
                    "attributes" : {
                        "POSITION" : 0,
                        "NORMAL" : 1,
                        "TEXCOORD_0" : 2
                    },
                    "indices" : 3,
                    "material" : 0
                }
            ]
        },
        {
            "name" : "Cylinder",
            "primitives" : [
                {
                    "attributes" : {
                        "POSITION" : 4,
                        "NORMAL" : 5,
                        "TEXCOORD_0" : 6
                    },
                    "indices" : 7,
                    "material" : 0
                }
            ]
        },
        {
            "name" : "Cylinder.001",
            "primitives" : [
                {
                    "attributes" : {
                        "POSITION" : 8,
                        "NORMAL" : 9,
                        "TEXCOORD_0" : 10
                    },
                    "indices" : 7,
                    "material" : 0
                }
            ]
        },
        {
            "name" : "Cube.002",
            "primitives" : [
                {
                    "attributes" : {
                        "POSITION" : 11,
                        "NORMAL" : 12,
                        "TEXCOORD_0" : 13
                    },
                    "indices" : 14,
                    "material" : 0
                }
            ]
        },
        {
            "name" : "Cylinder.002",
            "primitives" : [
                {
                    "attributes" : {
                        "POSITION" : 15,
                        "NORMAL" : 16,
                        "TEXCOORD_0" : 17
                    },
                    "indices" : 18,
                    "material" : 0
                }
            ]
        }
    ],
    "accessors" : [
        {
            "bufferView" : 0,
            "componentType" : 5126,
            "count" : 24,
            "max" : [
                1,
                1,
                1
            ],
            "min" : [
                -1,
                -1,
                -1
            ],
            "type" : "VEC3"
        },
        {
            "bufferView" : 1,
            "componentType" : 5126,
            "count" : 24,
            "type" : "VEC3"
        },
        {
            "bufferView" : 2,
            "componentType" : 5126,
            "count" : 24,
            "type" : "VEC2"
        },
        {
            "bufferView" : 3,
            "componentType" : 5123,
            "count" : 36,
            "type" : "SCALAR"
        },
        {
            "bufferView" : 4,
            "componentType" : 5126,
            "count" : 384,
            "max" : [
                1,
                1,
                1
            ],
            "min" : [
                -1.0000003576278687,
                -7.05286979675293,
                -1
            ],
            "type" : "VEC3"
        },
        {
            "bufferView" : 5,
            "componentType" : 5126,
            "count" : 384,
            "type" : "VEC3"
        },
        {
            "bufferView" : 6,
            "componentType" : 5126,
            "count" : 384,
            "type" : "VEC2"
        },
        {
            "bufferView" : 7,
            "componentType" : 5123,
            "count" : 744,
            "type" : "SCALAR"
        },
        {
            "bufferView" : 8,
            "componentType" : 5126,
            "count" : 384,
            "max" : [
                1,
                1,
                1
            ],
            "min" : [
                -1.0000003576278687,
                -7.05286979675293,
                -1
            ],
            "type" : "VEC3"
        },
        {
            "bufferView" : 9,
            "componentType" : 5126,
            "count" : 384,
            "type" : "VEC3"
        },
        {
            "bufferView" : 10,
            "componentType" : 5126,
            "count" : 384,
            "type" : "VEC2"
        },
        {
            "bufferView" : 11,
            "componentType" : 5126,
            "count" : 204,
            "max" : [
                1,
                1,
                1
            ],
            "min" : [
                -1,
                -1,
                -1
            ],
            "type" : "VEC3"
        },
        {
            "bufferView" : 12,
            "componentType" : 5126,
            "count" : 204,
            "type" : "VEC3"
        },
        {
            "bufferView" : 13,
            "componentType" : 5126,
            "count" : 204,
            "type" : "VEC2"
        },
        {
            "bufferView" : 14,
            "componentType" : 5123,
            "count" : 396,
            "type" : "SCALAR"
        },
        {
            "bufferView" : 15,
            "componentType" : 5126,
            "count" : 1600,
            "max" : [
                4.585034370422363,
                1.4296289682388306,
                1
            ],
            "min" : [
                -1,
                -1,
                -1
            ],
            "type" : "VEC3"
        },
        {
            "bufferView" : 16,
            "componentType" : 5126,
            "count" : 1600,
            "type" : "VEC3"
        },
        {
            "bufferView" : 17,
            "componentType" : 5126,
            "count" : 1600,
            "type" : "VEC2"
        },
        {
            "bufferView" : 18,
            "componentType" : 5123,
            "count" : 2484,
            "type" : "SCALAR"
        }
    ],
    "bufferViews" : [
        {
            "buffer" : 0,
            "byteLength" : 288,
            "byteOffset" : 0
        },
        {
            "buffer" : 0,
            "byteLength" : 288,
            "byteOffset" : 288
        },
        {
            "buffer" : 0,
            "byteLength" : 192,
            "byteOffset" : 576
        },
        {
            "buffer" : 0,
            "byteLength" : 72,
            "byteOffset" : 768
        },
        {
            "buffer" : 0,
            "byteLength" : 4608,
            "byteOffset" : 840
        },
        {
            "buffer" : 0,
            "byteLength" : 4608,
            "byteOffset" : 5448
        },
        {
            "buffer" : 0,
            "byteLength" : 3072,
            "byteOffset" : 10056
        },
        {
            "buffer" : 0,
            "byteLength" : 1488,
            "byteOffset" : 13128
        },
        {
            "buffer" : 0,
            "byteLength" : 4608,
            "byteOffset" : 14616
        },
        {
            "buffer" : 0,
            "byteLength" : 4608,
            "byteOffset" : 19224
        },
        {
            "buffer" : 0,
            "byteLength" : 3072,
            "byteOffset" : 23832
        },
        {
            "buffer" : 0,
            "byteLength" : 2448,
            "byteOffset" : 26904
        },
        {
            "buffer" : 0,
            "byteLength" : 2448,
            "byteOffset" : 29352
        },
        {
            "buffer" : 0,
            "byteLength" : 1632,
            "byteOffset" : 31800
        },
        {
            "buffer" : 0,
            "byteLength" : 792,
            "byteOffset" : 33432
        },
        {
            "buffer" : 0,
            "byteLength" : 19200,
            "byteOffset" : 34224
        },
        {
            "buffer" : 0,
            "byteLength" : 19200,
            "byteOffset" : 53424
        },
        {
            "buffer" : 0,
            "byteLength" : 12800,
            "byteOffset" : 72624
        },
        {
            "buffer" : 0,
            "byteLength" : 4968,
            "byteOffset" : 85424
        }
    ],
    "buffers" : [
        {
            "byteLength" : 90392,
            "uri" : "data:application/octet-stream;base64,"
        }
    ]
}
